<svg width="3903" height="2349" viewBox="0 0 3903 2349" fill="none" xmlns="http://www.w3.org/2000/svg">
<rect width="3903" height="2349" fill="#272526"/>
<path d="M1846.74 1233.13C1846.74 1233.13 1803.4 1243.74 1781.55 1242.46C1711.32 1238.35 1562.37 1225.35 1553.74 1188.98" stroke="#F31484" stroke-width="3.08"/>
<path d="M1723.59 1245.1C1749.56 1269.81 1969.18 1247.52 1975.63 1245.1C1975.63 1245.1 1946.61 1176.9 1917.75 1135.39C1908.43 1121.85 1903.5 1115.69 1897.25 1115.24C1897.02 1115.22 1896.78 1115.21 1896.54 1115.21C1868.72 1115.23 1698.39 1221.12 1723.59 1245.1Z" fill="#DCD1F7"/>
<path d="M1975.63 1245.1C1969.18 1247.52 1750.79 1268.47 1723.58 1245.1C1723.58 1245.1 1788.01 1255.82 1846.76 1235.52C1905.58 1215.14 1906.65 1163.86 1906.65 1163.86L1910.23 1120.57C1939.1 1162.08 1975.63 1245.1 1975.63 1245.1Z" fill="#A998D9"/>
<path d="M1897.25 1115.24C1885.93 1116.69 1925.61 1230.36 1975.61 1245.09C1975.61 1245.09 1928.45 1115.17 1898.52 1115.16C1898.09 1115.16 1897.67 1115.18 1897.25 1115.24Z" fill="#9D7FDE"/>
<path d="M1757.01 1208.21C1756.47 1212.54 1781.89 1202.17 1786.43 1194C1790.97 1185.84 1792.49 1176.39 1790.97 1175.82C1789.46 1175.25 1757.83 1201.55 1757.01 1208.21Z" fill="white"/>
<path d="M1779.61 950.961C1733.27 1005.19 1743.94 1056.03 1743.94 1056.03C1743.94 1056.03 1760.15 1086.77 1805.88 1033.54C1851.62 980.301 1938.41 958.396 1938.41 958.396C1938.41 958.396 2006.97 848.014 1986 838.335C1984.3 837.556 1981.94 837.179 1978.97 837.179C1945.22 837.185 1834.83 886.359 1779.61 950.961Z" fill="#C3A6ED"/>
<path d="M1814.51 966.479C1796.66 968.322 1767.35 1004.57 1767.35 1004.57L1795.81 1022.65C1795.81 1022.65 1825.53 1014.14 1834.64 1003.12C1843.76 992.114 1846.69 976.286 1844.51 972.564C1843.29 970.474 1839.63 968.244 1833.51 967.003C1828.69 966.027 1822.37 965.664 1814.51 966.479Z" fill="#D8CDF7"/>
<path d="M1994.88 843.79C1957.84 868.711 1904.08 948.765 1901.84 1050.37C1901.2 1081.7 1904.27 1111.83 1911.36 1138.73C1911.36 1138.8 1911.42 1138.86 1911.42 1138.92C1927.26 1199.13 1963.27 1243.31 2022.28 1249.24C2062.12 1253.27 2095.14 1247.07 2121.06 1232.96C2159.7 1211.86 2182.5 1173.02 2188.43 1123.7C2198.47 1041.2 2160.33 957.072 2152.54 898.781C2146.07 850.324 2105.1 823.635 2060.33 823.641C2038.2 823.641 2015.15 830.162 1994.88 843.79Z" fill="#DED2F7"/>
<path d="M2159.82 1007.12C2159.82 1007.12 2179.12 994.793 2170.83 947.832C2162.53 900.876 2147.72 865.256 2133.81 859.632C2133.6 859.545 2133.38 859.502 2133.16 859.502C2123.26 859.496 2118.37 952.43 2159.82 1007.12Z" fill="#A58FEE"/>
<path d="M2126.32 894.591C2126.32 894.591 2164.68 949.025 2152.27 995.919C2152.27 995.919 2127.9 959.322 2126.32 894.591Z" fill="#6240A1"/>
<path d="M1911.36 1138.73C1911.36 1138.8 1911.43 1138.86 1911.43 1138.92C1927.26 1199.13 1963.28 1243.31 2022.28 1249.24C2062.13 1253.27 2095.14 1247.07 2121.07 1232.96C2151.77 1217.75 2154.74 1166.52 2152.98 1140.71C2148.57 1076.02 2104.59 983.711 2014.61 983.711C1924.77 983.711 1894.89 1072.27 1911.36 1138.73Z" fill="url(#paint0_radial)"/>
<g opacity="0.51">
<path opacity="0.51" d="M1958.57 1208.21C1958.57 1208.21 1981.55 1239.45 2028.74 1242.78C2075.93 1246.11 2097.31 1232.87 2097.31 1232.87C2097.31 1232.87 2089.65 1218.2 2069.48 1214.87C2049.31 1211.54 2026.33 1228.74 2004.15 1225.77C1981.97 1222.78 1958.57 1208.21 1958.57 1208.21Z" fill="#64FCDD"/>
</g>
<path d="M2129.04 1215.73C2128.86 1223.58 2129.3 1231.37 2130.39 1238.84C2131.99 1250.01 2163.14 1257.35 2195.78 1260.86C2195.78 1260.86 2196.35 1260.93 2197.37 1260.99C2224.39 1263.86 2252.16 1264 2264.74 1261.38C2289.26 1256.33 2302.87 1238.14 2301.78 1213.11C2301.39 1201.23 2297.63 1187.76 2290.16 1173.52C2280.13 1154.49 2264.61 1135.19 2248.08 1119.36C2227.96 1099.94 2206.37 1085.58 2191.56 1082.52C2190.78 1082.35 2189.99 1082.27 2189.18 1082.27C2165.08 1082.28 2129.79 1152.83 2129.04 1215.73Z" fill="#DCD1F7"/>
<path d="M2248.08 1119.36C2248.08 1119.36 2202.17 1106.31 2165.96 1136.19C2140.32 1157.36 2133.01 1201.8 2129.04 1215.73C2129.82 1150.72 2167.49 1077.54 2191.56 1082.52C2206.38 1085.58 2227.96 1099.95 2248.08 1119.36Z" fill="#A998D9"/>
<path d="M2239.98 1198.52C2238.35 1203.24 2254.6 1216.68 2263.87 1213.24C2273.15 1209.78 2265.89 1196.29 2261.46 1193.48C2257.02 1190.65 2241.3 1194.68 2239.98 1198.52Z" fill="white"/>
<path d="M1715.28 1236.14C1715.28 1236.14 1565.06 1236.66 1553.74 1188.98C1539.69 1129.78 1614.41 1108.3 1641.03 1123.76C1672.14 1141.82 1733.35 1154.86 1725.32 1103.69C1717.29 1052.52 1710.33 1020.81 1724.32 973.251C1739.37 922.081 1800.57 855.86 1882.85 883.951C1908.68 892.771 1920.98 951.18 1920.98 951.18" stroke="#E10F4C" stroke-width="3.08"/>
<path d="M2034.23 985.332C2029.76 998.651 2084.2 1024.67 2084.2 1024.67L2124.81 1017.37C2124.81 1017.37 2115.36 977.803 2063.63 967.191C2063.63 967.191 2038.7 972.006 2034.23 985.332Z" fill="#C0A1EB"/>
<path d="M1826.3 970.603C1799.68 987.464 1782.63 1055.67 1780.01 1099.35C1778.66 1120.42 1780.77 1135.75 1786.78 1136.77C1819.86 1142.45 1856.38 1098.51 1880.59 1088.04C1904.8 1077.57 1957.85 1083.19 1988.45 1101.26C2018.78 1119.27 2066.86 1169.07 2095.71 1157.78C2105.1 1154.07 2106.96 1124.63 2102.42 1090.6C2097.25 1051.58 2083.65 1006.5 2063.41 987.532C2040.82 966.394 1974.91 955.571 1917 955.571C1877.8 955.577 1842.25 960.528 1826.3 970.603Z" fill="#E01C55"/>
<path d="M2095.71 1157.78C2066.85 1169.08 2018.77 1119.27 1988.44 1101.26C1957.85 1083.19 1904.79 1077.57 1880.59 1088.04C1856.38 1098.52 1819.85 1142.45 1786.78 1136.77C1780.77 1135.75 1778.66 1120.42 1780.01 1099.35L1788.89 1083.96L1849.17 1047.24C1849.17 1047.24 1849.68 1069.01 1855.36 1071.89C1860.98 1074.76 1881.92 1070.23 1921.26 1069.85C1960.6 1069.4 1991.25 1089.58 2009.76 1077.89C2028.35 1066.2 2041.69 1037.85 2041.69 1037.85L2059 1035.94L2102.42 1090.6C2106.96 1124.63 2105.1 1154.07 2095.71 1157.78Z" fill="#E10F4C"/>
<path d="M1832.96 967.19C1832.96 967.19 1829.74 987.933 1897.08 996.401C1964.42 1004.87 2026.77 999.8 2050.34 978.656C2050.34 978.656 1991.97 955.41 1918.35 955.41C1891.24 955.41 1862.06 958.562 1832.96 967.19Z" fill="#E43E6E"/>
<path d="M1905.04 943.277L1907.46 969.137C1926.82 983.248 1951.01 971.282 1951.01 971.282C1951.01 971.282 1936.5 941.713 1929.23 940.903C1928.42 940.811 1927.48 940.774 1926.45 940.774C1918.37 940.774 1905.04 943.277 1905.04 943.277Z" fill="#E10F4C"/>
<path d="M2145.4 844.94C2139.21 846.22 2130.25 869.639 2142.02 896.408C2154.74 925.34 2175.79 952.993 2169.92 972.901C2166.83 983.402 2135.83 995.325 2126.05 1000.18C2121.07 1002.67 2117.5 1004.07 2117.5 1004.07C2113.6 1039.19 2153.32 1071.19 2153.32 1071.19C2236.59 1077.18 2285.82 1043.41 2290.03 1020.42C2293.93 999.157 2287.17 952.987 2243.04 906.05L2242.97 905.988C2239.46 902.224 2235.63 898.392 2231.55 894.622C2193.42 859.125 2154.94 844.86 2146.35 844.86C2145.98 844.86 2145.66 844.891 2145.4 844.94Z" fill="#DBD0F7"/>
<path d="M2290.04 1020.42C2285.82 1043.41 2236.59 1077.19 2153.33 1071.19C2153.33 1071.19 2113.6 1039.19 2117.5 1004.07C2117.5 1004.07 2113.45 1006.8 2118.44 1004.31L2134.93 1007.14C2134.93 1007.14 2187.01 1020.59 2243.26 1010.95C2299.53 1001.24 2260.02 929.549 2243.04 906.05C2287.16 952.987 2293.94 999.157 2290.04 1020.42Z" fill="#BAA9E9"/>
<path d="M2196.48 951.021C2191.35 952.306 2192.04 960.137 2187.61 967.19C2183.17 974.248 2174.86 979.49 2175.79 981.109C2176.72 982.716 2197.69 982.364 2201.31 971.652C2204.95 960.941 2199.4 950.291 2196.48 951.021Z" fill="white"/>
<path d="M2161.96 1071.67C2161.96 1071.67 2186.23 1057.53 2170.47 1033.13C2151.72 1004.09 2117.52 1004.09 2117.52 1004.09C2120.23 1068.82 2161.96 1071.67 2161.96 1071.67Z" fill="#9D7FDE"/>
<path d="M2076.5 997.495C2070.36 998.836 2063.78 1003.95 2057.72 1011.16C2043.99 1027.45 2032.76 1054.59 2034.41 1073.04C2036.84 1099.66 2080.77 1119.84 2080.77 1119.84C2080.77 1119.84 2080.77 1119.79 2080.84 1119.79C2082.25 1118.89 2105.17 1104.27 2123.93 1095.65C2128.54 1093.54 2133.01 1091.49 2137.16 1089.77C2145.78 1086.07 2152.93 1083.19 2156.89 1081.66C2157.02 1081.66 2157.14 1081.59 2157.27 1081.47C2158.23 1081.08 2158.93 1080.83 2159.44 1080.64C2159.7 1080.51 2159.96 1080.38 2160.2 1080.32C2160.2 1080.32 2173.11 1058.54 2160.2 1030.32C2147.31 1002.09 2118.25 1002.86 2118.25 1002.86C2118.25 1002.86 2103.67 996.401 2087.42 996.401C2083.82 996.401 2080.13 996.716 2076.5 997.495Z" fill="#DED3F7"/>
<path d="M2117.17 1087.92C2103.89 1093.54 2090.22 1103.25 2080.84 1119.79C2080.78 1119.79 2080.78 1119.84 2080.78 1119.84H2091.44C2091.44 1119.84 2120.3 1101.52 2141.69 1089.64C2147.57 1086.32 2152.93 1083.51 2156.89 1081.66C2157.02 1081.66 2157.15 1081.59 2157.28 1081.47C2158.04 1081.15 2158.81 1080.9 2159.44 1080.64C2159.7 1080.51 2159.96 1080.38 2160.2 1080.32C2160.2 1080.32 2158.67 1080.19 2156 1080.19C2148.76 1080.19 2133.21 1081.11 2117.17 1087.92Z" fill="#A690EE"/>
<path d="M2076.15 1004.09C2074.71 1008.31 2092.47 1027.48 2096.9 1024.66C2101.34 1021.84 2097.71 1008.13 2088.84 1004.09C2079.96 1000.06 2076.94 1001.77 2076.15 1004.09Z" fill="white"/>
<path d="M1763.64 995.925C1763.64 995.925 1758.74 1119.34 1786.27 1115.13C1813.8 1110.94 1832.94 1100.02 1832.94 1100.02C1858.56 1071.67 1846.15 1026.1 1846.15 1026.1C1807.58 997.761 1773.85 995.882 1765.58 995.882C1764.32 995.882 1763.64 995.925 1763.64 995.925Z" fill="#AA92ED"/>
<path d="M1750.27 1103.91C1767.81 1129.32 1811.27 1108.75 1819.18 1099.68C1827.1 1090.6 1839.3 1050.67 1834.72 1034.34C1830.12 1018 1806.68 998.644 1763.65 995.925C1763.54 995.919 1763.41 995.912 1763.3 995.912C1745.92 995.912 1732.85 1078.67 1750.27 1103.91Z" fill="#DED3F7"/>
<path d="M2136.6 389.459L2262.99 548.592C2262.99 548.592 2279.25 442.317 2255.43 393.024C2231.6 343.726 2216.28 338.732 2216.28 338.732C2170.23 351.052 2136.6 389.459 2136.6 389.459Z" fill="#D8C8F5"/>
<path d="M2216.27 338.733C2216.27 338.733 2184.07 384.691 2193.27 450.176L2209.23 457.358L2239.51 362.968C2239.51 362.968 2221.94 337.924 2216.49 338.684C2216.42 338.694 2216.35 338.711 2216.27 338.733Z" fill="#B096EC"/>
<path d="M2207.21 453.092L2280.81 556.443C2280.81 556.443 2319.47 506.539 2292.05 436.293C2264.63 366.06 2220.3 352.299 2220.3 352.299C2189.27 398.578 2207.21 453.092 2207.21 453.092Z" fill="#32EEE9"/>
<path d="M2183.06 352.951C2176.52 357.765 2178.16 365.317 2192.53 361.344C2206.91 357.376 2213.26 344.786 2211.36 342.775C2209.45 340.772 2190.39 347.551 2183.06 352.951Z" fill="white"/>
<path d="M1703.31 479.051C1694 533.007 1738.93 630.683 1738.93 630.683L1816.57 442.879C1816.57 442.879 1773.65 415.232 1725.99 416.076C1725.99 416.076 1712.63 425.106 1703.31 479.051Z" fill="#D8C8F5"/>
<path d="M1710.33 445.777L1765.47 528.169L1778.83 516.861C1769.62 451.376 1725.99 416.077 1725.99 416.077C1725.91 416.075 1725.84 416.079 1725.77 416.09C1720.33 416.86 1710.33 445.777 1710.33 445.777Z" fill="#B096EC"/>
<path d="M1680.04 530.745C1673.04 605.821 1729.43 647.173 1729.43 647.173L1766.23 523.512C1766.23 523.512 1768.45 466.165 1725.87 430.231C1725.87 430.231 1687.04 455.668 1680.04 530.745Z" fill="#32EEE9"/>
<path d="M1796.9 438.423C1804.51 441.248 1805.01 448.955 1790.1 449.103C1775.18 449.246 1765.61 438.895 1766.88 436.444C1768.16 433.986 1788.36 435.255 1796.9 438.423Z" fill="white"/>
<path d="M1964.01 348.541C1788 385.356 1658.92 648.421 1758.73 811.727C1836.39 938.758 2269.36 834.897 2306.18 716.407C2345.55 589.745 2180.14 317.717 1978.15 346.067C1973.44 346.729 1968.75 347.544 1964.01 348.541Z" fill="#CDC3F7"/>
<path d="M1967.03 391.376C1775.88 427.834 1709.5 676.239 1778.3 775.166C1849.96 878.228 2230.51 806.071 2272.14 696.192C2306.88 604.522 2163.32 363.57 1977.01 389.724C1973.68 390.191 1970.38 390.737 1967.03 391.376Z" fill="#114098"/>
<path d="M2052.85 375.246C2049.52 380.582 2098.9 394.264 2104.71 390.557C2110.53 386.844 2063.99 357.389 2052.85 375.246Z" fill="white"/>
<path d="M1812.23 526.453C1811.54 553.494 1861.18 543.454 1940.9 529.548C2036.69 512.833 2145.03 582.098 2192.94 514.728C2200.84 503.619 2090.62 387.907 1979.81 406.426C1869 424.939 1812.82 502.97 1812.23 526.453Z" fill="#3A5CB2"/>
<path d="M1900.57 795.249C1898.18 815.115 1940.94 828.641 2038.8 809.97C2157.09 787.397 2178.88 758.882 2172.06 752.794C2167.95 749.139 2135.43 776.629 2034.59 768.93C1967.99 763.848 1903.09 774.348 1900.57 795.249Z" fill="#3A5CB2"/>
<path d="M1785.75 750.676C1785.75 750.676 1777.71 723.493 1777.36 685.526C1776.99 647.567 1783.63 622.08 1790.06 624.621C1796.5 627.161 1800.71 663.8 1809.29 699.283C1815.96 726.882 1825.03 752.407 1825.03 752.407C1825.03 752.407 1802.74 780.656 1785.75 750.676Z" fill="#3A5CB2"/>
<g opacity="0.5">
<path opacity="0.5" d="M1808.28 851.294C1808.28 851.294 1813.3 844.053 1842.47 820.892C1862.03 805.366 1882.32 787.398 1884.74 781.527C1887.66 768.06 1792.76 789.1 1792.76 789.1L1758.73 811.726C1758.73 811.726 1777.26 838.345 1808.28 851.294Z" fill="#AA9FDA"/>
</g>
<path d="M1623.95 712.815C1594.03 786.57 1615.27 822.157 1615.27 822.157C1666.61 847.498 1798.62 801.856 1798.62 801.856L1790.2 783.547C1790.2 783.547 1634.3 833.733 1620.66 777.234C1604.32 709.526 1711.14 630.289 1711.14 630.289C1722.18 591.1 1695.18 578.649 1695.18 578.649C1695.18 578.649 1653.89 639.065 1623.95 712.815Z" fill="#A791EE"/>
<path d="M1769.23 781.076C1756.98 799.594 1790.42 813.276 1816.22 812.471C1845.16 811.563 1894.21 793.166 1887.12 764.883C1883.29 749.648 1857.69 742.929 1830.41 746.757C1807.06 750.039 1782.47 761.053 1769.23 781.076Z" fill="#E91789"/>
<path d="M1771.59 783.836C1771.38 788.652 1873.31 775.476 1873.17 757.157C1873.11 748.51 1850.82 745.668 1827.15 748.995C1800.66 752.718 1772.43 764.157 1771.59 783.836Z" fill="#F865C1"/>
<path d="M2263.19 386.373C2263.19 386.373 2247.35 371.558 2229.6 378.585C2211.84 385.606 2218.76 443.684 2229.96 443.571C2241.15 443.465 2241.11 409.348 2248.8 402.907C2256.48 396.465 2271.49 396.434 2271.49 396.434L2263.19 386.373Z" fill="#8DF2FB"/>
<path d="M1690.42 481.538C1690.42 481.538 1698.63 473.505 1714.93 473.873C1731.23 474.241 1745.01 505.647 1752.7 501.22C1760.4 496.787 1746.97 444.654 1723.23 432.105C1723.23 432.105 1696.54 458.713 1690.42 481.538Z" fill="#7AF0FB"/>
<path d="M1636.05 694.893C1640.18 698.862 1682.59 624.919 1678.2 618.914C1678.2 618.914 1631.92 690.923 1636.05 694.893Z" fill="#DFD3F7"/>
<path d="M2102.63 526.802C2063.68 536.41 2060.93 590.259 2081.58 614.436C2093.8 628.745 2181.52 618.486 2192.12 591.681C2201.22 568.657 2158.1 518.655 2109.26 525.52C2107.06 525.828 2104.85 526.255 2102.63 526.802Z" fill="#2EEBEE"/>
<path d="M1819.94 644.026C1837.52 666.871 1924.67 652.553 1932.48 635.429C1945.65 606.498 1928.18 553.626 1888.09 556.988C1886.66 557.105 1885.25 557.266 1883.86 557.462C1831.78 564.786 1804.58 624.053 1819.94 644.026Z" fill="#2EEBEE"/>
<path d="M1989.46 707.784C1989.46 707.784 2015.03 675.167 2037.31 673.808C2059.59 672.451 2047.95 703.197 2047.95 703.197C2047.95 703.197 2022.24 712.577 1989.46 707.784Z" fill="#2E94CD"/>
<path d="M969.886 1533H947.913V1426.36H969.886V1533ZM1008.41 1453.75L1009.07 1462.91C1014.73 1455.83 1022.33 1452.29 1031.85 1452.29C1040.25 1452.29 1046.5 1454.75 1050.6 1459.68C1054.7 1464.62 1056.8 1471.99 1056.9 1481.8V1533H1035.73V1482.32C1035.73 1477.82 1034.75 1474.58 1032.8 1472.58C1030.85 1470.52 1027.6 1469.5 1023.06 1469.5C1017.1 1469.5 1012.63 1472.04 1009.66 1477.12V1533H988.489V1453.75H1008.41ZM1115.93 1511.1C1115.93 1508.51 1114.64 1506.49 1112.05 1505.02C1109.51 1503.51 1105.41 1502.17 1099.74 1500.99C1080.9 1497.04 1071.47 1489.03 1071.47 1476.97C1071.47 1469.94 1074.38 1464.08 1080.19 1459.39C1086.05 1454.66 1093.69 1452.29 1103.11 1452.29C1113.17 1452.29 1121.2 1454.66 1127.21 1459.39C1133.26 1464.13 1136.29 1470.28 1136.29 1477.85H1115.12C1115.12 1474.82 1114.15 1472.33 1112.2 1470.38C1110.24 1468.38 1107.19 1467.38 1103.04 1467.38C1099.48 1467.38 1096.72 1468.18 1094.76 1469.79C1092.81 1471.4 1091.83 1473.45 1091.83 1475.94C1091.83 1478.29 1092.93 1480.19 1095.13 1481.66C1097.38 1483.07 1101.14 1484.32 1106.41 1485.39C1111.68 1486.42 1116.13 1487.59 1119.74 1488.91C1130.92 1493.01 1136.51 1500.11 1136.51 1510.22C1136.51 1517.45 1133.41 1523.31 1127.21 1527.8C1121.01 1532.24 1113 1534.46 1103.19 1534.46C1096.55 1534.46 1090.64 1533.29 1085.46 1530.95C1080.33 1528.56 1076.31 1525.31 1073.38 1521.21C1070.45 1517.06 1068.98 1512.59 1068.98 1507.8H1089.05C1089.25 1511.56 1090.64 1514.45 1093.23 1516.45C1095.81 1518.45 1099.28 1519.45 1103.63 1519.45C1107.68 1519.45 1110.73 1518.69 1112.78 1517.18C1114.88 1515.62 1115.93 1513.59 1115.93 1511.1ZM1172.55 1533H1151.31V1453.75H1172.55V1533ZM1150.06 1433.24C1150.06 1430.07 1151.11 1427.46 1153.21 1425.41C1155.36 1423.36 1158.26 1422.33 1161.93 1422.33C1165.54 1422.33 1168.42 1423.36 1170.57 1425.41C1172.72 1427.46 1173.79 1430.07 1173.79 1433.24C1173.79 1436.47 1172.69 1439.1 1170.5 1441.15C1168.35 1443.21 1165.49 1444.23 1161.93 1444.23C1158.36 1444.23 1155.48 1443.21 1153.28 1441.15C1151.14 1439.1 1150.06 1436.47 1150.06 1433.24ZM1234.58 1473.6C1231.7 1473.21 1229.16 1473.01 1226.97 1473.01C1218.96 1473.01 1213.71 1475.72 1211.22 1481.14V1533H1190.05V1453.75H1210.05L1210.63 1463.2C1214.88 1455.92 1220.76 1452.29 1228.28 1452.29C1230.63 1452.29 1232.83 1452.6 1234.88 1453.24L1234.58 1473.6ZM1288.56 1533C1287.59 1531.1 1286.88 1528.73 1286.44 1525.9C1281.31 1531.61 1274.65 1534.46 1266.44 1534.46C1258.68 1534.46 1252.23 1532.22 1247.11 1527.73C1242.03 1523.23 1239.49 1517.57 1239.49 1510.73C1239.49 1502.34 1242.59 1495.89 1248.79 1491.4C1255.04 1486.91 1264.05 1484.64 1275.82 1484.59H1285.56V1480.05C1285.56 1476.38 1284.61 1473.45 1282.7 1471.26C1280.85 1469.06 1277.89 1467.96 1273.84 1467.96C1270.28 1467.96 1267.47 1468.82 1265.42 1470.52C1263.42 1472.23 1262.42 1474.58 1262.42 1477.56H1241.25C1241.25 1472.97 1242.66 1468.72 1245.5 1464.81C1248.33 1460.91 1252.33 1457.85 1257.51 1455.66C1262.68 1453.41 1268.49 1452.29 1274.94 1452.29C1284.71 1452.29 1292.44 1454.75 1298.16 1459.68C1303.92 1464.57 1306.8 1471.45 1306.8 1480.34V1514.69C1306.85 1522.21 1307.9 1527.9 1309.95 1531.75V1533H1288.56ZM1271.06 1518.28C1274.18 1518.28 1277.06 1517.59 1279.7 1516.23C1282.34 1514.81 1284.29 1512.93 1285.56 1510.59V1496.96H1277.65C1267.05 1496.96 1261.41 1500.63 1260.73 1507.95L1260.66 1509.2C1260.66 1511.83 1261.58 1514.01 1263.44 1515.71C1265.3 1517.42 1267.83 1518.28 1271.06 1518.28ZM1406.34 1533C1405.36 1531.1 1404.65 1528.73 1404.21 1525.9C1399.08 1531.61 1392.42 1534.46 1384.22 1534.46C1376.45 1534.46 1370.01 1532.22 1364.88 1527.73C1359.8 1523.23 1357.26 1517.57 1357.26 1510.73C1357.26 1502.34 1360.36 1495.89 1366.57 1491.4C1372.82 1486.91 1381.82 1484.64 1393.59 1484.59H1403.33V1480.05C1403.33 1476.38 1402.38 1473.45 1400.48 1471.26C1398.62 1469.06 1395.67 1467.96 1391.61 1467.96C1388.05 1467.96 1385.24 1468.82 1383.19 1470.52C1381.19 1472.23 1380.19 1474.58 1380.19 1477.56H1359.02C1359.02 1472.97 1360.44 1468.72 1363.27 1464.81C1366.1 1460.91 1370.11 1457.85 1375.28 1455.66C1380.46 1453.41 1386.27 1452.29 1392.71 1452.29C1402.48 1452.29 1410.22 1454.75 1415.93 1459.68C1421.69 1464.57 1424.57 1471.45 1424.57 1480.34V1514.69C1424.62 1522.21 1425.67 1527.9 1427.72 1531.75V1533H1406.34ZM1388.83 1518.28C1391.96 1518.28 1394.84 1517.59 1397.47 1516.23C1400.11 1514.81 1402.06 1512.93 1403.33 1510.59V1496.96H1395.42C1384.83 1496.96 1379.19 1500.63 1378.5 1507.95L1378.43 1509.2C1378.43 1511.83 1379.36 1514.01 1381.21 1515.71C1383.07 1517.42 1385.61 1518.28 1388.83 1518.28ZM1500.53 1533H1479.29V1453.75H1500.53V1533ZM1478.04 1433.24C1478.04 1430.07 1479.09 1427.46 1481.19 1425.41C1483.34 1423.36 1486.24 1422.33 1489.91 1422.33C1493.52 1422.33 1496.4 1423.36 1498.55 1425.41C1500.7 1427.46 1501.77 1430.07 1501.77 1433.24C1501.77 1436.47 1500.67 1439.1 1498.47 1441.15C1496.33 1443.21 1493.47 1444.23 1489.91 1444.23C1486.34 1444.23 1483.46 1443.21 1481.26 1441.15C1479.11 1439.1 1478.04 1436.47 1478.04 1433.24ZM1537.88 1453.75L1538.54 1462.61C1544.15 1455.73 1551.75 1452.29 1561.32 1452.29C1571.52 1452.29 1578.53 1456.32 1582.34 1464.37C1587.9 1456.32 1595.84 1452.29 1606.14 1452.29C1614.73 1452.29 1621.13 1454.8 1625.33 1459.83C1629.53 1464.81 1631.63 1472.33 1631.63 1482.39V1533H1610.39V1482.46C1610.39 1477.97 1609.51 1474.7 1607.75 1472.65C1605.99 1470.55 1602.89 1469.5 1598.45 1469.5C1592.1 1469.5 1587.71 1472.53 1585.27 1478.58L1585.34 1533H1564.17V1482.54C1564.17 1477.95 1563.27 1474.63 1561.46 1472.58C1559.66 1470.52 1556.58 1469.5 1552.23 1469.5C1546.23 1469.5 1541.88 1471.99 1539.2 1476.97V1533H1518.03V1453.75H1537.88ZM1693.88 1533C1692.91 1531.1 1692.2 1528.73 1691.76 1525.9C1686.63 1531.61 1679.97 1534.46 1671.77 1534.46C1664 1534.46 1657.56 1532.22 1652.43 1527.73C1647.35 1523.23 1644.81 1517.57 1644.81 1510.73C1644.81 1502.34 1647.91 1495.89 1654.11 1491.4C1660.36 1486.91 1669.37 1484.64 1681.14 1484.59H1690.88V1480.05C1690.88 1476.38 1689.93 1473.45 1688.03 1471.26C1686.17 1469.06 1683.22 1467.96 1679.16 1467.96C1675.6 1467.96 1672.79 1468.82 1670.74 1470.52C1668.74 1472.23 1667.74 1474.58 1667.74 1477.56H1646.57C1646.57 1472.97 1647.99 1468.72 1650.82 1464.81C1653.65 1460.91 1657.65 1457.85 1662.83 1455.66C1668.01 1453.41 1673.82 1452.29 1680.26 1452.29C1690.03 1452.29 1697.77 1454.75 1703.48 1459.68C1709.24 1464.57 1712.12 1471.45 1712.12 1480.34V1514.69C1712.17 1522.21 1713.22 1527.9 1715.27 1531.75V1533H1693.88ZM1676.38 1518.28C1679.5 1518.28 1682.39 1517.59 1685.02 1516.23C1687.66 1514.81 1689.61 1512.93 1690.88 1510.59V1496.96H1682.97C1672.38 1496.96 1666.74 1500.63 1666.05 1507.95L1665.98 1509.2C1665.98 1511.83 1666.91 1514.01 1668.76 1515.71C1670.62 1517.42 1673.16 1518.28 1676.38 1518.28ZM1725.31 1492.79C1725.31 1480.63 1728.19 1470.84 1733.95 1463.42C1739.76 1456 1747.57 1452.29 1757.39 1452.29C1766.08 1452.29 1772.84 1455.27 1777.67 1461.22L1778.55 1453.75H1797.74V1530.36C1797.74 1537.3 1796.16 1543.33 1792.98 1548.45C1789.86 1553.58 1785.44 1557.49 1779.72 1560.17C1774.01 1562.86 1767.32 1564.2 1759.66 1564.2C1753.85 1564.2 1748.18 1563.03 1742.66 1560.69C1737.15 1558.39 1732.97 1555.41 1730.14 1551.75L1739.51 1538.86C1744.79 1544.77 1751.18 1547.72 1758.7 1547.72C1764.32 1547.72 1768.69 1546.21 1771.81 1543.18C1774.94 1540.2 1776.5 1535.95 1776.5 1530.44V1526.19C1771.62 1531.71 1765.2 1534.46 1757.24 1534.46C1747.72 1534.46 1740 1530.75 1734.09 1523.33C1728.24 1515.86 1725.31 1505.97 1725.31 1493.67V1492.79ZM1746.47 1494.33C1746.47 1501.51 1747.91 1507.15 1750.79 1511.25C1753.67 1515.3 1757.63 1517.33 1762.66 1517.33C1769.1 1517.33 1773.72 1514.91 1776.5 1510.08V1476.75C1773.67 1471.92 1769.1 1469.5 1762.81 1469.5C1757.73 1469.5 1753.72 1471.57 1750.79 1475.72C1747.91 1479.88 1746.47 1486.08 1746.47 1494.33ZM1850.55 1534.46C1838.93 1534.46 1829.46 1530.9 1822.13 1523.77C1814.86 1516.64 1811.22 1507.15 1811.22 1495.28V1493.23C1811.22 1485.27 1812.76 1478.17 1815.83 1471.92C1818.91 1465.62 1823.25 1460.78 1828.87 1457.41C1834.53 1454 1840.98 1452.29 1848.21 1452.29C1859.05 1452.29 1867.57 1455.71 1873.77 1462.54C1880.02 1469.38 1883.14 1479.07 1883.14 1491.62V1500.26H1832.68C1833.36 1505.44 1835.41 1509.59 1838.83 1512.71C1842.3 1515.84 1846.67 1517.4 1851.94 1517.4C1860.1 1517.4 1866.47 1514.45 1871.06 1508.54L1881.46 1520.18C1878.28 1524.67 1873.99 1528.19 1868.57 1530.73C1863.15 1533.22 1857.14 1534.46 1850.55 1534.46ZM1848.13 1469.43C1843.93 1469.43 1840.52 1470.84 1837.88 1473.67C1835.29 1476.51 1833.63 1480.56 1832.9 1485.83H1862.34V1484.15C1862.24 1479.46 1860.97 1475.85 1858.53 1473.31C1856.09 1470.72 1852.62 1469.43 1848.13 1469.43ZM1915.08 1453.75L1915.74 1462.61C1921.35 1455.73 1928.94 1452.29 1938.51 1452.29C1948.72 1452.29 1955.73 1456.32 1959.53 1464.37C1965.1 1456.32 1973.04 1452.29 1983.34 1452.29C1991.93 1452.29 1998.33 1454.8 2002.53 1459.83C2006.73 1464.81 2008.83 1472.33 2008.83 1482.39V1533H1987.59V1482.46C1987.59 1477.97 1986.71 1474.7 1984.95 1472.65C1983.19 1470.55 1980.09 1469.5 1975.65 1469.5C1969.3 1469.5 1964.91 1472.53 1962.46 1478.58L1962.54 1533H1941.37V1482.54C1941.37 1477.95 1940.47 1474.63 1938.66 1472.58C1936.85 1470.52 1933.78 1469.5 1929.43 1469.5C1923.43 1469.5 1919.08 1471.99 1916.39 1476.97V1533H1895.23V1453.75H1915.08ZM2059.22 1492.79C2059.22 1480.44 2061.98 1470.6 2067.49 1463.27C2073.06 1455.95 2080.65 1452.29 2090.27 1452.29C2097.99 1452.29 2104.36 1455.17 2109.39 1460.93V1420.5H2130.63V1533H2111.51L2110.49 1524.58C2105.21 1531.17 2098.43 1534.46 2090.12 1534.46C2080.8 1534.46 2073.3 1530.8 2067.64 1523.48C2062.02 1516.11 2059.22 1505.88 2059.22 1492.79ZM2080.38 1494.33C2080.38 1501.75 2081.68 1507.44 2084.27 1511.39C2086.85 1515.35 2090.61 1517.33 2095.54 1517.33C2102.09 1517.33 2106.7 1514.57 2109.39 1509.05V1477.78C2106.75 1472.26 2102.19 1469.5 2095.69 1469.5C2085.49 1469.5 2080.38 1477.78 2080.38 1494.33ZM2143.74 1492.64C2143.74 1484.78 2145.25 1477.78 2148.28 1471.62C2151.31 1465.47 2155.65 1460.71 2161.32 1457.34C2167.03 1453.97 2173.65 1452.29 2181.17 1452.29C2191.86 1452.29 2200.57 1455.56 2207.31 1462.1C2214.1 1468.64 2217.88 1477.53 2218.67 1488.76L2218.81 1494.18C2218.81 1506.34 2215.42 1516.11 2208.63 1523.48C2201.84 1530.8 2192.74 1534.46 2181.31 1534.46C2169.89 1534.46 2160.75 1530.8 2153.92 1523.48C2147.13 1516.15 2143.74 1506.19 2143.74 1493.6V1492.64ZM2164.91 1494.18C2164.91 1501.7 2166.32 1507.46 2169.15 1511.47C2171.99 1515.42 2176.04 1517.4 2181.31 1517.4C2186.44 1517.4 2190.44 1515.45 2193.32 1511.54C2196.2 1507.58 2197.64 1501.29 2197.64 1492.64C2197.64 1485.27 2196.2 1479.56 2193.32 1475.5C2190.44 1471.45 2186.39 1469.43 2181.17 1469.43C2175.99 1469.43 2171.99 1471.45 2169.15 1475.5C2166.32 1479.51 2164.91 1485.73 2164.91 1494.18ZM2291.61 1453.75V1537.32C2291.61 1546.06 2289.29 1552.85 2284.66 1557.68C2280.02 1562.57 2273.33 1565.01 2264.59 1565.01C2260.93 1565.01 2257.43 1564.59 2254.11 1563.76V1546.99C2256.65 1547.43 2258.88 1547.65 2260.78 1547.65C2267.18 1547.65 2270.37 1544.25 2270.37 1537.47V1453.75H2291.61ZM2268.69 1433.24C2268.69 1430.07 2269.74 1427.46 2271.84 1425.41C2273.99 1423.36 2276.89 1422.33 2280.55 1422.33C2284.22 1422.33 2287.1 1423.36 2289.2 1425.41C2291.35 1427.46 2292.42 1430.07 2292.42 1433.24C2292.42 1436.47 2291.32 1439.1 2289.12 1441.15C2286.98 1443.21 2284.12 1444.23 2280.55 1444.23C2276.99 1444.23 2274.11 1443.21 2271.91 1441.15C2269.76 1439.1 2268.69 1436.47 2268.69 1433.24ZM2304.87 1492.64C2304.87 1484.78 2306.38 1477.78 2309.41 1471.62C2312.44 1465.47 2316.79 1460.71 2322.45 1457.34C2328.16 1453.97 2334.78 1452.29 2342.3 1452.29C2352.99 1452.29 2361.71 1455.56 2368.45 1462.1C2375.23 1468.64 2379.02 1477.53 2379.8 1488.76L2379.94 1494.18C2379.94 1506.34 2376.55 1516.11 2369.76 1523.48C2362.98 1530.8 2353.87 1534.46 2342.44 1534.46C2331.02 1534.46 2321.89 1530.8 2315.05 1523.48C2308.26 1516.15 2304.87 1506.19 2304.87 1493.6V1492.64ZM2326.04 1494.18C2326.04 1501.7 2327.45 1507.46 2330.29 1511.47C2333.12 1515.42 2337.17 1517.4 2342.44 1517.4C2347.57 1517.4 2351.58 1515.45 2354.46 1511.54C2357.34 1507.58 2358.78 1501.29 2358.78 1492.64C2358.78 1485.27 2357.34 1479.56 2354.46 1475.5C2351.58 1471.45 2347.52 1469.43 2342.3 1469.43C2337.12 1469.43 2333.12 1471.45 2330.29 1475.5C2327.45 1479.51 2326.04 1485.73 2326.04 1494.18ZM2389.91 1492.79C2389.91 1480.63 2392.79 1470.84 2398.55 1463.42C2404.36 1456 2412.17 1452.29 2421.99 1452.29C2430.68 1452.29 2437.44 1455.27 2442.27 1461.22L2443.15 1453.75H2462.34V1530.36C2462.34 1537.3 2460.75 1543.33 2457.58 1548.45C2454.46 1553.58 2450.04 1557.49 2444.32 1560.17C2438.61 1562.86 2431.92 1564.2 2424.26 1564.2C2418.45 1564.2 2412.78 1563.03 2407.26 1560.69C2401.75 1558.39 2397.57 1555.41 2394.74 1551.75L2404.11 1538.86C2409.39 1544.77 2415.78 1547.72 2423.3 1547.72C2428.92 1547.72 2433.29 1546.21 2436.41 1543.18C2439.54 1540.2 2441.1 1535.95 2441.1 1530.44V1526.19C2436.22 1531.71 2429.8 1534.46 2421.84 1534.46C2412.32 1534.46 2404.6 1530.75 2398.69 1523.33C2392.83 1515.86 2389.91 1505.97 2389.91 1493.67V1492.79ZM2411.07 1494.33C2411.07 1501.51 2412.51 1507.15 2415.39 1511.25C2418.27 1515.3 2422.23 1517.33 2427.26 1517.33C2433.7 1517.33 2438.32 1514.91 2441.1 1510.08V1476.75C2438.27 1471.92 2433.7 1469.5 2427.41 1469.5C2422.33 1469.5 2418.32 1471.57 2415.39 1475.72C2412.51 1479.88 2411.07 1486.08 2411.07 1494.33ZM2475.38 1492.64C2475.38 1484.78 2476.89 1477.78 2479.92 1471.62C2482.95 1465.47 2487.29 1460.71 2492.96 1457.34C2498.67 1453.97 2505.29 1452.29 2512.81 1452.29C2523.5 1452.29 2532.21 1455.56 2538.95 1462.1C2545.74 1468.64 2549.52 1477.53 2550.31 1488.76L2550.45 1494.18C2550.45 1506.34 2547.06 1516.11 2540.27 1523.48C2533.48 1530.8 2524.38 1534.46 2512.95 1534.46C2501.53 1534.46 2492.4 1530.8 2485.56 1523.48C2478.77 1516.15 2475.38 1506.19 2475.38 1493.6V1492.64ZM2496.55 1494.18C2496.55 1501.7 2497.96 1507.46 2500.79 1511.47C2503.63 1515.42 2507.68 1517.4 2512.95 1517.4C2518.08 1517.4 2522.08 1515.45 2524.96 1511.54C2527.84 1507.58 2529.29 1501.29 2529.29 1492.64C2529.29 1485.27 2527.84 1479.56 2524.96 1475.5C2522.08 1471.45 2518.03 1469.43 2512.81 1469.43C2507.63 1469.43 2503.63 1471.45 2500.79 1475.5C2497.96 1479.51 2496.55 1485.73 2496.55 1494.18ZM2646.77 1533C2645.79 1531.1 2645.08 1528.73 2644.64 1525.9C2639.51 1531.61 2632.85 1534.46 2624.65 1534.46C2616.88 1534.46 2610.44 1532.22 2605.31 1527.73C2600.23 1523.23 2597.69 1517.57 2597.69 1510.73C2597.69 1502.34 2600.79 1495.89 2607 1491.4C2613.25 1486.91 2622.25 1484.64 2634.02 1484.59H2643.76V1480.05C2643.76 1476.38 2642.81 1473.45 2640.91 1471.26C2639.05 1469.06 2636.1 1467.96 2632.04 1467.96C2628.48 1467.96 2625.67 1468.82 2623.62 1470.52C2621.62 1472.23 2620.62 1474.58 2620.62 1477.56H2599.45C2599.45 1472.97 2600.87 1468.72 2603.7 1464.81C2606.53 1460.91 2610.54 1457.85 2615.71 1455.66C2620.89 1453.41 2626.7 1452.29 2633.14 1452.29C2642.91 1452.29 2650.65 1454.75 2656.36 1459.68C2662.12 1464.57 2665 1471.45 2665 1480.34V1514.69C2665.05 1522.21 2666.1 1527.9 2668.15 1531.75V1533H2646.77ZM2629.26 1518.28C2632.39 1518.28 2635.27 1517.59 2637.9 1516.23C2640.54 1514.81 2642.49 1512.93 2643.76 1510.59V1496.96H2635.85C2625.26 1496.96 2619.62 1500.63 2618.93 1507.95L2618.86 1509.2C2618.86 1511.83 2619.79 1514.01 2621.64 1515.71C2623.5 1517.42 2626.04 1518.28 2629.26 1518.28ZM2677.97 1492.64C2677.97 1480.19 2680.73 1470.35 2686.24 1463.13C2691.81 1455.9 2699.43 1452.29 2709.09 1452.29C2717.59 1452.29 2724.35 1455.53 2729.38 1462.03L2730.77 1453.75H2749.38V1563.47H2728.14V1526.19C2723.25 1531.71 2716.86 1534.46 2708.95 1534.46C2699.52 1534.46 2692 1530.8 2686.39 1523.48C2680.77 1516.15 2677.97 1505.88 2677.97 1492.64ZM2699.13 1494.18C2699.13 1501.75 2700.45 1507.51 2703.09 1511.47C2705.77 1515.42 2709.53 1517.4 2714.37 1517.4C2720.86 1517.4 2725.45 1514.81 2728.14 1509.64V1476.9C2725.5 1471.92 2720.96 1469.43 2714.51 1469.43C2709.63 1469.43 2705.85 1471.4 2703.16 1475.36C2700.48 1479.31 2699.13 1485.59 2699.13 1494.18ZM2813.54 1524.94C2808.31 1531.29 2801.09 1534.46 2791.86 1534.46C2783.36 1534.46 2776.87 1532.02 2772.38 1527.14C2767.93 1522.26 2765.66 1515.1 2765.56 1505.68V1453.75H2786.73V1504.95C2786.73 1513.2 2790.49 1517.33 2798.01 1517.33C2805.19 1517.33 2810.12 1514.84 2812.81 1509.86V1453.75H2834.05V1533H2814.12L2813.54 1524.94ZM2872.35 1533H2851.11V1453.75H2872.35V1533ZM2849.87 1433.24C2849.87 1430.07 2850.92 1427.46 2853.02 1425.41C2855.16 1423.36 2858.07 1422.33 2861.73 1422.33C2865.34 1422.33 2868.23 1423.36 2870.37 1425.41C2872.52 1427.46 2873.6 1430.07 2873.6 1433.24C2873.6 1436.47 2872.5 1439.1 2870.3 1441.15C2868.15 1443.21 2865.3 1444.23 2861.73 1444.23C2858.17 1444.23 2855.29 1443.21 2853.09 1441.15C2850.94 1439.1 2849.87 1436.47 2849.87 1433.24ZM2911.39 1500.26H2893.81L2891.32 1426.36H2913.88L2911.39 1500.26ZM2902.6 1511.83C2906.17 1511.83 2909.02 1512.88 2911.17 1514.98C2913.37 1517.08 2914.47 1519.77 2914.47 1523.04C2914.47 1526.26 2913.37 1528.92 2911.17 1531.02C2909.02 1533.12 2906.17 1534.17 2902.6 1534.17C2899.08 1534.17 2896.23 1533.12 2894.03 1531.02C2891.88 1528.92 2890.81 1526.26 2890.81 1523.04C2890.81 1519.82 2891.88 1517.16 2894.03 1515.06C2896.23 1512.91 2899.08 1511.83 2902.6 1511.83Z" fill="white"/>
<defs>
<radialGradient id="paint0_radial" cx="0" cy="0" r="1" gradientUnits="userSpaceOnUse" gradientTransform="translate(2024.81 1118.49) scale(148.513)">
<stop stop-color="#4AB9FF"/>
<stop offset="0.5" stop-color="#3FD4F3"/>
<stop offset="1" stop-color="#34F0E6"/>
</radialGradient>
</defs>
</svg>
